<svg width="23" height="19" viewBox="0 0 23 19" fill="none" xmlns="http://www.w3.org/2000/svg">
<path d="M18.3594 8.52344C18.4896 9.1224 18.6068 9.70833 18.7109 10.2812H17.4219L18.0469 8.60156C18.0469 8.60156 18.0729 8.53646 18.125 8.40625L18.2422 8.01562L18.3594 8.52344ZM22.5 2.625V16.375C22.5 16.8958 22.3177 17.3385 21.9531 17.7031C21.5885 18.0677 21.1458 18.25 20.625 18.25H1.875C1.35417 18.25 0.911458 18.0677 0.546875 17.7031C0.182292 17.3385 0 16.8958 0 16.375V2.625C0 2.10417 0.182292 1.66146 0.546875 1.29688C0.911458 0.932292 1.35417 0.75 1.875 0.75H20.625C21.1458 0.75 21.5885 0.932292 21.9531 1.29688C22.3177 1.66146 22.5 2.10417 22.5 2.625ZM5.97656 12.4297L8.4375 6.375H6.75781L5.23438 10.5156L4.53125 6.88281C4.45312 6.57031 4.20573 6.40104 3.78906 6.375H1.28906L1.25 6.49219C1.84896 6.64844 2.39583 6.86979 2.89062 7.15625L4.29688 12.4297H5.97656ZM9.64844 12.4297L10.625 6.375H9.0625L8.08594 12.4297H9.64844ZM15.1172 10.4766C15.1172 9.79948 14.6745 9.23958 13.7891 8.79688C13.4766 8.64062 13.2422 8.51042 13.0859 8.40625C12.9557 8.30208 12.8906 8.1849 12.8906 8.05469C12.9167 7.92448 12.9948 7.80729 13.125 7.70312C13.2812 7.59896 13.5026 7.54688 13.7891 7.54688C14.2057 7.52083 14.5964 7.59896 14.9609 7.78125L15.1172 7.82031L15.3516 6.53125C14.9089 6.34896 14.4401 6.25781 13.9453 6.25781C13.1641 6.25781 12.526 6.45312 12.0312 6.84375C11.5365 7.20833 11.276 7.70312 11.25 8.32812C11.25 8.92708 11.7188 9.46094 12.6562 9.92969C12.9427 10.0599 13.151 10.1901 13.2812 10.3203C13.4115 10.4245 13.4766 10.5417 13.4766 10.6719C13.4766 10.8542 13.3724 10.9974 13.1641 11.1016C12.9818 11.2057 12.7474 11.2578 12.4609 11.2578C12.2005 11.2578 11.9661 11.2448 11.7578 11.2188C11.5495 11.1667 11.3151 11.0755 11.0547 10.9453L10.8594 10.8281L10.625 12.1953C11.0677 12.4036 11.6536 12.5208 12.3828 12.5469C13.1901 12.5469 13.8411 12.3646 14.3359 12C14.8568 11.6094 15.1172 11.1016 15.1172 10.4766ZM20.625 12.4297L19.375 6.375H18.1641C17.7474 6.375 17.474 6.54427 17.3438 6.88281L15 12.4297H16.6406L16.9531 11.5312H18.9844L19.1797 12.4297H20.625Z" fill="#9C9C9C"/>
</svg>
