<svg width="23" height="19" viewBox="0 0 23 19" fill="none" xmlns="http://www.w3.org/2000/svg">
<path d="M18.8672 15.5156C18.8672 15.6458 18.8281 15.763 18.75 15.8672C18.6719 15.9453 18.5677 15.9844 18.4375 15.9844C18.3073 15.9844 18.2031 15.9453 18.125 15.8672C18.0469 15.763 18.0078 15.6458 18.0078 15.5156C18.0078 15.3854 18.0469 15.2812 18.125 15.2031C18.2031 15.125 18.3073 15.0859 18.4375 15.0859C18.5677 15.0859 18.6719 15.125 18.75 15.2031C18.8281 15.2812 18.8672 15.3854 18.8672 15.5156ZM6.71875 15.0859C6.58854 15.0859 6.48438 15.125 6.40625 15.2031C6.32812 15.2812 6.28906 15.3854 6.28906 15.5156C6.28906 15.6458 6.32812 15.763 6.40625 15.8672C6.48438 15.9453 6.58854 15.9844 6.71875 15.9844C6.84896 15.9844 6.95312 15.9453 7.03125 15.8672C7.10938 15.763 7.14844 15.6458 7.14844 15.5156C7.14844 15.3854 7.10938 15.2812 7.03125 15.2031C6.95312 15.125 6.84896 15.0859 6.71875 15.0859ZM11.3281 15.0469C11.0938 15.0469 10.9635 15.1641 10.9375 15.3984H11.6797C11.6536 15.1641 11.5365 15.0469 11.3281 15.0469ZM15.5078 15.0859C15.3776 15.0859 15.2734 15.125 15.1953 15.2031C15.1172 15.2812 15.0781 15.3854 15.0781 15.5156C15.1042 15.6458 15.1432 15.763 15.1953 15.8672C15.2734 15.9453 15.3776 15.9844 15.5078 15.9844C15.638 15.9844 15.7422 15.9453 15.8203 15.8672C15.9245 15.763 15.9766 15.6458 15.9766 15.5156C15.9766 15.3854 15.9245 15.2812 15.8203 15.2031C15.7422 15.125 15.638 15.0859 15.5078 15.0859ZM19.6484 16.1016V16.1797L19.5703 16.2578L19.5312 16.2188L19.4531 16.1406L19.4922 16.0625L19.5703 16.0234H19.6094L19.6484 16.1016ZM19.5703 16.1406C19.5703 16.1406 19.5833 16.1406 19.6094 16.1406V16.1016V16.0625H19.4922V16.1797H19.5312V16.1406L19.5703 16.1797H19.6094L19.5703 16.1406ZM22.5 2.66406V16.4141C22.5 16.9349 22.3177 17.3776 21.9531 17.7422C21.5885 18.1068 21.1458 18.2891 20.625 18.2891H1.875C1.35417 18.2891 0.911458 18.1068 0.546875 17.7422C0.182292 17.3776 0 16.9349 0 16.4141V2.66406C0 2.14323 0.182292 1.70052 0.546875 1.33594C0.911458 0.971354 1.35417 0.789062 1.875 0.789062H20.625C21.1458 0.789062 21.5885 0.971354 21.9531 1.33594C22.3177 1.70052 22.5 2.14323 22.5 2.66406ZM2.5 8.13281C2.5 9.09635 2.73438 9.99479 3.20312 10.8281C3.69792 11.6615 4.36198 12.3255 5.19531 12.8203C6.02865 13.2891 6.92708 13.5234 7.89062 13.5234C8.98438 13.5234 9.98698 13.224 10.8984 12.625C9.96094 11.8698 9.32292 10.9323 8.98438 9.8125C8.67188 8.69271 8.6849 7.57292 9.02344 6.45312C9.36198 5.33333 9.98698 4.39583 10.8984 3.64062C9.98698 3.01562 8.98438 2.70312 7.89062 2.70312C6.92708 2.70312 6.02865 2.95052 5.19531 3.44531C4.36198 3.9401 3.69792 4.60417 3.20312 5.4375C2.73438 6.24479 2.5 7.14323 2.5 8.13281ZM11.25 12.3516C12.1354 11.6745 12.7344 10.8021 13.0469 9.73438C13.3854 8.66667 13.3854 7.59896 13.0469 6.53125C12.7344 5.46354 12.1354 4.57812 11.25 3.875C10.3646 4.57812 9.7526 5.46354 9.41406 6.53125C9.10156 7.59896 9.10156 8.66667 9.41406 9.73438C9.7526 10.8021 10.3646 11.6745 11.25 12.3516ZM5.70312 15.3594C5.70312 15.1771 5.65104 15.0339 5.54688 14.9297C5.44271 14.8255 5.28646 14.7734 5.07812 14.7734C4.86979 14.7734 4.71354 14.8646 4.60938 15.0469C4.50521 14.8646 4.34896 14.7734 4.14062 14.7734C3.95833 14.7734 3.8151 14.8385 3.71094 14.9688V14.8125H3.39844V16.2578H3.71094V15.9062C3.71094 15.5938 3.72396 15.3724 3.75 15.2422C3.80208 15.112 3.90625 15.0599 4.0625 15.0859C4.21875 15.0859 4.3099 15.151 4.33594 15.2812C4.38802 15.3854 4.41406 15.5938 4.41406 15.9062V16.2578H4.72656L4.6875 15.9062C4.6875 15.5938 4.70052 15.3724 4.72656 15.2422C4.77865 15.112 4.88281 15.0599 5.03906 15.0859C5.19531 15.0859 5.28646 15.151 5.3125 15.2812C5.36458 15.3854 5.39062 15.5938 5.39062 15.9062V16.2578H5.70312V15.3594ZM7.46094 14.8125H7.14844V14.9688C7.01823 14.8385 6.84896 14.7734 6.64062 14.7734C6.45833 14.7734 6.30208 14.8516 6.17188 15.0078C6.04167 15.138 5.97656 15.3203 5.97656 15.5547C5.97656 15.763 6.04167 15.9453 6.17188 16.1016C6.30208 16.2318 6.47135 16.2969 6.67969 16.2969C6.88802 16.2969 7.04427 16.2188 7.14844 16.0625V16.2578H7.46094V14.8125ZM9.02344 15.8281C9.02344 15.6719 8.95833 15.5547 8.82812 15.4766C8.75 15.4505 8.60677 15.4245 8.39844 15.3984C8.21615 15.3464 8.125 15.2812 8.125 15.2031C8.125 15.099 8.20312 15.0469 8.35938 15.0469C8.54167 15.0469 8.71094 15.0859 8.86719 15.1641L8.98438 14.9297C8.77604 14.7995 8.52865 14.7604 8.24219 14.8125C7.95573 14.8385 7.8125 14.9818 7.8125 15.2422C7.8125 15.3984 7.8776 15.5026 8.00781 15.5547C8.0599 15.6068 8.1901 15.6458 8.39844 15.6719C8.60677 15.6979 8.71094 15.763 8.71094 15.8672C8.71094 15.9714 8.60677 16.0234 8.39844 16.0234C8.21615 16.0234 8.04688 15.9714 7.89062 15.8672L7.77344 16.1016C7.98177 16.2578 8.24219 16.3099 8.55469 16.2578C8.86719 16.2057 9.02344 16.0625 9.02344 15.8281ZM10.4297 16.1797L10.3125 15.9062C10.2083 15.9583 10.1042 15.9844 10 15.9844C9.89583 15.9844 9.84375 15.9062 9.84375 15.75V15.0859H10.3516V14.8125H9.84375V14.3828H9.53125V14.8125H9.21875V15.0859H9.53125V15.75C9.53125 16.0625 9.63542 16.2448 9.84375 16.2969C10.0781 16.3229 10.2734 16.2839 10.4297 16.1797ZM10.9375 15.6719H11.9922C11.9922 15.0729 11.7708 14.7734 11.3281 14.7734C11.1198 14.7734 10.9505 14.8516 10.8203 15.0078C10.6901 15.138 10.625 15.3073 10.625 15.5156C10.625 15.9062 10.7812 16.1536 11.0938 16.2578C11.4062 16.3359 11.6927 16.2708 11.9531 16.0625L11.7969 15.8281C11.6406 15.9583 11.4583 16.0104 11.25 15.9844C11.0677 15.9583 10.9635 15.8542 10.9375 15.6719ZM13.2422 14.8125C13.138 14.7604 13.0208 14.7474 12.8906 14.7734C12.7865 14.7995 12.7083 14.8646 12.6562 14.9688V14.8125H12.3438V16.2578H12.6562V15.4375C12.6562 15.2292 12.7083 15.112 12.8125 15.0859C12.9427 15.0599 13.0599 15.0729 13.1641 15.125L13.2422 14.8125ZM13.6719 15.5156C13.6719 15.3073 13.75 15.1771 13.9062 15.125C14.0885 15.0469 14.2708 15.0729 14.4531 15.2031L14.6094 14.9297C14.375 14.7474 14.1016 14.7214 13.7891 14.8516C13.4766 14.9557 13.3203 15.1771 13.3203 15.5156C13.3203 15.776 13.3984 15.9714 13.5547 16.1016C13.7109 16.2318 13.8932 16.2969 14.1016 16.2969C14.3099 16.2969 14.4792 16.2318 14.6094 16.1016L14.4531 15.8672C14.2708 15.9974 14.0885 16.0365 13.9062 15.9844C13.75 15.9062 13.6719 15.75 13.6719 15.5156ZM16.25 14.8125H15.9375V14.9688C15.8333 14.8385 15.6771 14.7734 15.4688 14.7734C15.2865 14.7734 15.1172 14.8385 14.9609 14.9688C14.8307 15.099 14.7656 15.2812 14.7656 15.5156C14.7656 15.75 14.8438 15.9453 15 16.1016C15.1562 16.2318 15.3255 16.2969 15.5078 16.2969C15.6901 16.2969 15.8333 16.2188 15.9375 16.0625V16.2578H16.25V14.8125ZM17.5781 14.8125C17.5 14.7865 17.3958 14.7865 17.2656 14.8125C17.1354 14.8125 17.0443 14.8646 16.9922 14.9688V14.8125H16.6797V16.2578H16.9922V15.4375C16.9922 15.2552 17.0443 15.151 17.1484 15.125C17.2786 15.0729 17.3958 15.0729 17.5 15.125L17.5781 14.8125ZM19.1406 14.2266H18.8281V14.9688C18.724 14.8385 18.5807 14.7734 18.3984 14.7734C18.2161 14.7734 18.0469 14.8385 17.8906 14.9688C17.7344 15.099 17.6562 15.2812 17.6562 15.5156C17.6562 15.75 17.7344 15.9453 17.8906 16.1016C18.0469 16.2318 18.2161 16.2969 18.3984 16.2969C18.6068 16.2969 18.75 16.2188 18.8281 16.0625V16.2578H19.1406V14.2266ZM19.4531 11.2969V11.4922H19.4922V11.2969H19.5703V11.2578H19.375V11.2969H19.4531ZM19.6875 16.1406C19.6875 16.1146 19.6875 16.0885 19.6875 16.0625L19.5703 15.9844L19.4531 16.0234C19.4271 16.0495 19.4141 16.0625 19.4141 16.0625V16.1406V16.1797C19.4141 16.2057 19.4271 16.2188 19.4531 16.2188L19.4922 16.2578H19.6094L19.6875 16.1406ZM19.8438 11.2578H19.7656L19.7266 11.4141L19.6484 11.2578H19.6094V11.4922V11.2969L19.6875 11.4531H19.7266L19.8047 11.2969V11.4922H19.8438V11.2578ZM20 8.13281C20 7.14323 19.7526 6.24479 19.2578 5.4375C18.7891 4.60417 18.138 3.9401 17.3047 3.44531C16.4714 2.95052 15.5729 2.70312 14.6094 2.70312C13.5156 2.70312 12.513 3.0026 11.6016 3.60156C12.513 4.35677 13.138 5.30729 13.4766 6.45312C13.8151 7.57292 13.8151 8.69271 13.4766 9.8125C13.1641 10.9323 12.5391 11.8698 11.6016 12.625C12.513 13.224 13.5156 13.5234 14.6094 13.5234C15.5729 13.5234 16.4714 13.2891 17.3047 12.8203C18.138 12.3255 18.7891 11.6615 19.2578 10.8281C19.7526 9.99479 20 9.09635 20 8.13281Z" fill="#9C9C9C"/>
</svg>
