<svg width="23" height="19" viewBox="0 0 23 19" fill="none" xmlns="http://www.w3.org/2000/svg">
<path d="M7.26562 9.57812C7.26562 9.8125 7.1875 10.0208 7.03125 10.2031C6.875 10.3594 6.67969 10.4375 6.44531 10.4375C6.23698 10.4375 6.06771 10.3854 5.9375 10.2812C5.83333 10.1771 5.78125 10.0208 5.78125 9.8125C5.78125 9.60417 5.85938 9.42188 6.01562 9.26562C6.19792 9.08333 6.39323 8.99219 6.60156 8.99219C6.8099 8.99219 6.96615 9.04427 7.07031 9.14844C7.20052 9.2526 7.26562 9.39583 7.26562 9.57812ZM3.16406 7.70312H2.96875C2.89062 7.70312 2.85156 7.72917 2.85156 7.78125L2.65625 8.83594H3.00781C3.24219 8.83594 3.42448 8.79688 3.55469 8.71875C3.71094 8.64062 3.80208 8.48438 3.82812 8.25C3.88021 8.01562 3.84115 7.8724 3.71094 7.82031C3.60677 7.74219 3.42448 7.70312 3.16406 7.70312ZM14.2578 7.70312H14.0625C13.9844 7.70312 13.9453 7.72917 13.9453 7.78125L13.7891 8.83594H14.1016C14.362 8.83594 14.5703 8.78385 14.7266 8.67969C14.8828 8.57552 14.9609 8.39323 14.9609 8.13281C14.9609 7.95052 14.8828 7.82031 14.7266 7.74219C14.6224 7.71615 14.4661 7.70312 14.2578 7.70312ZM22.5 2.625V16.375C22.5 16.8958 22.3177 17.3385 21.9531 17.7031C21.5885 18.0677 21.1458 18.25 20.625 18.25H1.875C1.35417 18.25 0.911458 18.0677 0.546875 17.7031C0.182292 17.3385 0 16.8958 0 16.375V2.625C0 2.10417 0.182292 1.66146 0.546875 1.29688C0.911458 0.932292 1.35417 0.75 1.875 0.75H20.625C21.1458 0.75 21.5885 0.932292 21.9531 1.29688C22.3177 1.66146 22.5 2.10417 22.5 2.625ZM5 7.89844C5 7.53385 4.86979 7.26042 4.60938 7.07812C4.375 6.89583 4.0625 6.80469 3.67188 6.80469H2.10938C1.97917 6.80469 1.90104 6.86979 1.875 7L1.25 10.9844C1.25 11.0365 1.26302 11.0755 1.28906 11.1016C1.3151 11.1276 1.34115 11.1406 1.36719 11.1406H2.10938C2.16146 11.1406 2.20052 11.1276 2.22656 11.1016C2.27865 11.0495 2.31771 10.9844 2.34375 10.9062L2.5 9.89062C2.52604 9.73438 2.72135 9.66927 3.08594 9.69531H3.20312C3.77604 9.69531 4.21875 9.53906 4.53125 9.22656C4.84375 8.91406 5 8.47135 5 7.89844ZM8.32031 8.25H7.57812C7.47396 8.25 7.40885 8.35417 7.38281 8.5625C7.20052 8.30208 6.88802 8.17188 6.44531 8.17188C6.0026 8.17188 5.61198 8.35417 5.27344 8.71875C4.9349 9.05729 4.76562 9.47396 4.76562 9.96875C4.76562 10.3333 4.88281 10.6328 5.11719 10.8672C5.35156 11.1016 5.65104 11.2188 6.01562 11.2188C6.19792 11.2188 6.38021 11.1797 6.5625 11.1016C6.77083 10.9974 6.9401 10.8802 7.07031 10.75C7.04427 10.8281 7.03125 10.9193 7.03125 11.0234C7.03125 11.1016 7.07031 11.1406 7.14844 11.1406H7.8125C7.91667 11.1406 7.99479 11.0625 8.04688 10.9062L8.4375 8.40625C8.4375 8.38021 8.42448 8.35417 8.39844 8.32812C8.3724 8.27604 8.33333 8.25 8.28125 8.25H8.32031ZM9.88281 12.0781L12.3828 8.44531C12.3828 8.44531 12.3828 8.43229 12.3828 8.40625C12.3828 8.30208 12.3438 8.25 12.2656 8.25H11.5234C11.4453 8.25 11.3802 8.28906 11.3281 8.36719L10.3125 9.89062L9.88281 8.40625C9.83073 8.30208 9.7526 8.25 9.64844 8.25H8.94531C8.84115 8.25 8.78906 8.30208 8.78906 8.40625L9.64844 10.8281L9.60938 10.8672C9.08854 11.5964 8.82812 12 8.82812 12.0781C8.82812 12.1562 8.86719 12.1953 8.94531 12.1953H9.72656C9.77865 12.1953 9.83073 12.1562 9.88281 12.0781ZM16.0938 7.89844C16.0938 7.53385 15.9635 7.26042 15.7031 7.07812C15.4688 6.89583 15.1562 6.80469 14.7656 6.80469H13.2031C13.0729 6.80469 12.9948 6.86979 12.9688 7L12.3438 10.9844C12.3438 11.0365 12.3568 11.0755 12.3828 11.1016C12.4089 11.1276 12.4349 11.1406 12.4609 11.1406H13.2812C13.3594 11.1406 13.4115 11.1016 13.4375 11.0234L13.5938 9.89062C13.6198 9.73438 13.8151 9.66927 14.1797 9.69531H14.2969C14.8698 9.69531 15.3125 9.53906 15.625 9.22656C15.9375 8.91406 16.0938 8.47135 16.0938 7.89844ZM19.4141 8.25H18.6719C18.5677 8.25 18.5026 8.35417 18.4766 8.5625C18.3203 8.30208 18.0078 8.17188 17.5391 8.17188C17.0703 8.17188 16.6667 8.35417 16.3281 8.71875C16.0156 9.05729 15.8594 9.47396 15.8594 9.96875C15.8594 10.3333 15.9635 10.6328 16.1719 10.8672C16.4062 11.1016 16.7188 11.2188 17.1094 11.2188C17.2917 11.2188 17.474 11.1797 17.6562 11.1016C17.8646 10.9974 18.0208 10.8802 18.125 10.75V10.9844C18.125 11.0885 18.1641 11.1406 18.2422 11.1406H18.9062C19.0104 11.1406 19.0885 11.0625 19.1406 10.9062L19.5312 8.40625C19.5312 8.38021 19.5182 8.35417 19.4922 8.32812C19.4661 8.27604 19.4401 8.25 19.4141 8.25ZM21.25 6.96094C21.25 6.85677 21.2109 6.80469 21.1328 6.80469H20.3906C20.3125 6.80469 20.2734 6.84375 20.2734 6.92188L19.6484 11.0234C19.6484 11.1016 19.6875 11.1406 19.7656 11.1406H20.4297C20.4557 11.1406 20.4948 11.1276 20.5469 11.1016C20.599 11.0495 20.625 10.9844 20.625 10.9062L21.25 6.96094ZM17.7344 8.99219C17.5 8.99219 17.2917 9.07031 17.1094 9.22656C16.9531 9.38281 16.875 9.57812 16.875 9.8125C16.875 10.0208 16.9271 10.1771 17.0312 10.2812C17.1615 10.3854 17.3307 10.4375 17.5391 10.4375C17.7734 10.4375 17.9688 10.3594 18.125 10.2031C18.2812 10.0208 18.3594 9.82552 18.3594 9.61719C18.3594 9.40885 18.2943 9.2526 18.1641 9.14844C18.0599 9.04427 17.9167 8.99219 17.7344 8.99219Z" fill="#9C9C9C"/>
</svg>
