<svg width="28" height="17" viewBox="0 0 28 17" fill="none" xmlns="http://www.w3.org/2000/svg">
<path fill-rule="evenodd" clip-rule="evenodd" d="M11.541 0H5.32222C4.37418 0 3.42664 0.77179 3.20575 1.72181L0.0463367 15.2807C-0.174553 16.2274 0.415698 16.9999 1.36126 16.9999H7.57936H8.14385H15.0726H15.3799H21.8527C22.8007 16.9999 23.7494 16.2274 23.9723 15.2807L27.1299 1.72181C27.3526 0.77179 26.7637 0 25.8155 0H19.3416H19.0322H12.1055H11.541ZM6.12432 4.32967C6.19012 4.34521 6.39613 4.35232 7.09368 4.34521C7.08973 4.3515 7.08824 4.35831 7.08566 4.37011C7.08533 4.37164 7.08497 4.37326 7.08459 4.37497C6.99812 4.64232 6.48921 6.69745 6.48921 6.69745L6.43234 6.91884L6.43193 6.92028C6.30935 7.35145 6.17151 7.83631 5.64633 8.14663C5.34343 8.33197 4.89521 8.43349 4.41738 8.43349C4.04653 8.43349 3.39098 8.3733 3.16116 7.9717C3.0894 7.84506 3.05336 7.69526 3.05336 7.51174L3.13718 6.89305L3.1805 6.7039L3.68494 4.47368C3.68494 4.47368 3.70875 4.351 3.7152 4.32967C3.72694 4.34521 3.8974 4.35365 4.859 4.34521C4.85784 4.35232 4.85652 4.36009 4.85189 4.37497C4.76343 4.63654 4.26941 6.61528 4.26941 6.61528C4.26941 6.61859 4.17517 7.20702 4.17517 7.20702L4.18095 7.30705C4.21121 7.59837 4.39143 7.75197 4.70077 7.75197C4.89322 7.75197 5.05922 7.69526 5.20141 7.57771C5.45189 7.3755 5.52563 7.06235 5.62699 6.62305C5.62831 6.62123 6.09902 4.44987 6.12432 4.32967ZM8.27695 6.13157C8.47833 6.03287 8.70252 6.00311 8.8252 6.00311C9.01319 6.00311 9.21788 6.05535 9.30319 6.27178C9.38387 6.46489 9.33031 6.70199 9.22366 7.16956L9.16877 7.40847C9.05965 7.92845 9.04163 8.02402 8.98012 8.38114L8.94011 8.41206C8.59985 8.40627 8.47833 8.40627 8.07987 8.4276L8.06499 8.39718C8.08145 8.32392 8.09868 8.25135 8.11594 8.17866C8.13456 8.10026 8.15321 8.02171 8.17097 7.94201L8.22007 7.73401C8.29365 7.41177 8.3654 7.03646 8.37383 6.92155C8.37401 6.91998 8.37419 6.91836 8.37438 6.91669C8.38242 6.84532 8.4009 6.68132 8.2085 6.68132C8.12583 6.68132 8.03919 6.72133 7.9514 6.762C7.91376 6.89733 7.84564 7.22547 7.79571 7.46599C7.78226 7.53078 7.77013 7.58921 7.76027 7.63581C7.68802 7.97421 7.66548 8.09394 7.64116 8.22309C7.6322 8.27069 7.62299 8.31957 7.61097 8.38114L7.58253 8.41206C7.23119 8.40627 7.10852 8.40627 6.70427 8.4276L6.68608 8.39272C6.75337 8.11826 6.8205 7.84049 6.88515 7.56537C7.05495 6.81888 7.09562 6.53334 7.14142 6.15356L7.17448 6.13157C7.20029 6.12794 7.22482 6.12449 7.24824 6.1212C7.5829 6.07419 7.69248 6.05879 8.09161 5.97798L8.12765 6.01799L8.06184 6.25558C8.07865 6.24563 8.09524 6.23568 8.11174 6.22579C8.16682 6.19277 8.22071 6.16046 8.27695 6.13157ZM10.6893 6.50616C10.7118 6.50183 10.7351 6.49733 10.7595 6.49265L10.7673 6.51067L10.7731 6.53018C10.7559 6.60196 10.7383 6.67377 10.7206 6.74582C10.6986 6.83574 10.6764 6.92604 10.6548 7.0171C10.6374 7.09388 10.6194 7.16983 10.6015 7.24539C10.5809 7.3319 10.5605 7.41788 10.5413 7.50402C10.5103 7.64348 10.4868 7.74753 10.4686 7.82815C10.442 7.94613 10.4266 8.01394 10.4159 8.06914C10.4049 8.12159 10.3989 8.1598 10.3893 8.22119C10.3831 8.2612 10.3753 8.31106 10.3635 8.38112L10.3442 8.39733L10.3262 8.41204C10.2597 8.41167 10.2008 8.41094 10.1472 8.41027C10.0348 8.40886 9.94561 8.40775 9.85859 8.41089C9.74099 8.41194 9.62629 8.41742 9.46131 8.4253C9.44584 8.42604 9.42991 8.4268 9.4135 8.42758L9.40325 8.41089L9.39102 8.3927C9.43681 8.22012 9.46431 8.14621 9.48777 8.08317C9.49108 8.07428 9.49431 8.06561 9.49749 8.0569C9.52395 7.98647 9.54792 7.91669 9.59438 7.71647C9.6544 7.45491 9.69127 7.27288 9.71524 7.11266C9.73606 6.99859 9.74962 6.89706 9.76384 6.79059C9.76893 6.75247 9.7741 6.71372 9.77972 6.67353L9.7946 6.66179L9.81081 6.64708C10.0155 6.61864 10.1453 6.59929 10.2784 6.57797C10.3972 6.56246 10.5166 6.53944 10.6893 6.50616ZM10.0064 5.91196C10.2338 5.75505 10.5716 5.71901 10.764 5.8326C10.9538 5.94503 10.9256 6.16129 10.6994 6.31836C10.474 6.47658 10.1349 6.50948 9.94577 6.39904C9.75398 6.28397 9.77977 6.06572 10.0064 5.91196ZM13.0168 8.03744C12.7164 8.35588 12.3173 8.46318 11.9279 8.46318C11.7755 8.46318 11.539 8.44384 11.375 8.3734C10.8435 8.1583 10.9281 7.58028 11.0017 7.2592C11.0746 6.94407 11.1955 6.61538 11.457 6.37316C11.8213 6.03737 12.2875 6.01802 12.4833 6.01802C12.8088 6.01802 13.1226 6.09093 13.3002 6.31827C13.4171 6.46741 13.5102 6.71227 13.3906 7.23672C13.3539 7.39494 13.248 7.77918 13.0168 8.03744ZM12.3637 6.55272C12.0932 6.55272 11.9873 6.88604 11.8975 7.28318C11.8666 7.42074 11.8413 7.54738 11.8426 7.67139C11.8452 7.92253 12.0144 7.92253 12.0428 7.92253C12.1384 7.92253 12.2248 7.85987 12.2979 7.75653C12.4026 7.61649 12.48 7.28764 12.4968 7.19918C12.5911 6.80072 12.5757 6.55272 12.3637 6.55272ZM14.3944 8.38119L14.364 8.41211C14.0133 8.40632 13.8924 8.40632 13.4875 8.42765L13.4695 8.39277C13.5366 8.11831 13.6038 7.84054 13.6684 7.56542C13.8382 6.81876 13.8771 6.53339 13.9248 6.15361L13.9551 6.13162C13.9844 6.12749 14.012 6.12361 14.0383 6.11992C14.3654 6.07394 14.4784 6.05806 14.8735 5.97786L14.9064 6.01804L14.8451 6.25563C14.9155 6.21231 14.9873 6.16916 15.0589 6.13162C15.2591 6.03275 15.4845 6.00316 15.6073 6.00316C15.7926 6.00316 15.9987 6.0554 16.0864 6.27183C16.1658 6.46494 16.1116 6.70187 16.0044 7.16944L15.9509 7.40852C15.8384 7.92833 15.8222 8.0239 15.7622 8.38119L15.7209 8.41211C15.3786 8.40632 15.2617 8.40632 14.862 8.42765L14.8471 8.39723C14.866 8.31301 14.8863 8.22981 14.9066 8.14627C14.9231 8.0786 14.9396 8.01071 14.9555 7.94189L15.002 7.7339C15.0769 7.41166 15.1487 7.03651 15.1558 6.92144L15.1563 6.9171C15.1644 6.84602 15.1833 6.6812 14.9918 6.6812C14.9074 6.6812 14.8233 6.72027 14.7364 6.76061L14.7333 6.76205C14.6988 6.88961 14.6354 7.18844 14.5855 7.42376C14.5682 7.50536 14.5525 7.57932 14.5402 7.63585C14.466 7.99527 14.4452 8.10803 14.4193 8.2475C14.4119 8.28767 14.404 8.33006 14.3944 8.38119ZM17.477 7.57774C17.4757 7.57774 17.3264 8.30489 17.3013 8.42757C17.1902 8.41533 16.9261 8.41533 16.2821 8.4231L16.9441 5.69704C16.9441 5.69505 17.2083 4.47057 17.2083 4.47057C17.2083 4.47057 17.2277 4.37501 17.2379 4.32127C17.3595 4.33615 17.6552 4.3388 18.3928 4.32971L18.6769 4.32706C19.2531 4.32971 19.7522 4.33615 20.0029 4.68683C20.1017 4.8186 20.136 4.98725 20.136 5.15771C20.136 5.2875 20.1164 5.41729 20.09 5.52641C19.988 5.9715 19.7593 6.33772 19.4248 6.58572C18.9333 6.94731 18.3062 6.94731 17.7508 6.94731H17.6919C17.6519 6.9693 17.6119 7.02485 17.6119 7.02485C17.6042 7.0442 17.477 7.57774 17.477 7.57774ZM18.0704 5.03503C18.0717 5.0304 17.7908 6.2524 17.7908 6.2524L17.7792 6.31374H17.9317C18.1673 6.31374 18.396 6.30597 18.5826 6.21239C18.8093 6.10195 18.9857 5.87329 19.0457 5.60131C19.1115 5.3037 19.0173 5.0757 18.7886 4.98725C18.7751 4.98593 18.1957 4.93616 18.1957 4.93616L18.0835 4.92459L18.0795 4.97237L18.0704 5.03503ZM19.9092 8.40629C19.3803 8.20028 19.4656 7.62226 19.5398 7.30581C19.6102 6.99184 19.7342 6.66447 19.9925 6.42556C20.36 6.09092 20.7876 5.99866 20.9696 6.07025C21.112 6.12498 21.2043 6.21277 21.2679 6.31561C21.2719 6.28403 21.2762 6.25245 21.2803 6.21955L21.3114 6.19425C21.7208 6.13622 21.8345 6.11936 22.2601 6.04049L22.2723 6.07604C22.1941 6.39894 22.1181 6.72002 22.0418 7.04425C21.8915 7.69497 21.8333 8.03764 21.7755 8.37752L21.7685 8.41852L21.7312 8.44696C21.319 8.44382 21.2009 8.44382 20.8205 8.45986L20.7965 8.42894L20.8342 8.28444C20.695 8.40149 20.5447 8.48284 20.3825 8.4916C20.2289 8.49937 20.0778 8.47805 19.9092 8.40629ZM20.9005 6.60511C20.6294 6.60511 20.5247 6.93513 20.4336 7.32515C20.402 7.46404 20.3767 7.59052 20.3781 7.71336C20.3839 7.96005 20.5512 7.96005 20.5783 7.96005C20.6739 7.96005 20.8399 7.89871 20.9096 7.79984C20.9468 7.7504 20.9807 7.67616 21.0098 7.59746C21.017 7.56841 21.0243 7.53936 21.0316 7.51031C21.0531 7.4243 21.0747 7.33822 21.095 7.25158C21.1136 7.17139 21.1294 7.10046 21.1439 7.03317C21.1623 6.76334 21.072 6.60511 20.9005 6.60511ZM25.0683 5.9998L25.1012 6.03733C25.1012 6.03733 23.4058 8.9456 23.1829 9.42541L23.148 9.46542H23.1533L22.822 10.0332C22.7173 10.2276 22.5229 10.3723 22.2136 10.3736L21.6866 10.3645L21.8402 9.85363H21.9436C21.9973 9.85363 22.036 9.85098 22.0657 9.83627C22.0929 9.82717 22.1122 9.80585 22.1335 9.77476L22.32 9.4798L22.3182 9.47583C22.4724 9.24382 22.5589 9.08867 22.6586 8.9099C22.7301 8.78164 22.8084 8.64123 22.9233 8.45158C22.8821 8.02481 22.8597 7.84071 22.8297 7.59555C22.824 7.54864 22.818 7.4995 22.8116 7.446C22.7999 7.3487 22.7864 7.25054 22.7728 7.15206C22.7586 7.04906 22.7444 6.94572 22.7322 6.84269C22.7214 6.75581 22.7134 6.68991 22.7071 6.63754C22.6835 6.4423 22.6826 6.43498 22.6424 6.22978L22.6398 6.224C22.6407 6.2183 22.6413 6.21276 22.6419 6.20738C22.643 6.19749 22.644 6.18814 22.6469 6.17936L22.6786 6.15092C22.9749 6.11292 23.0612 6.09539 23.2559 6.05584C23.329 6.041 23.4172 6.02307 23.5376 5.9998L23.5744 6.03733L23.6331 7.17137C23.6338 7.18372 23.6341 7.19358 23.6344 7.20322C23.6348 7.21332 23.6351 7.22317 23.6358 7.23536C23.7425 6.99722 23.7989 6.89719 23.8558 6.79619C23.924 6.67533 23.9929 6.55308 24.1498 6.1911L24.1511 6.19754C24.1531 6.1911 24.1543 6.18399 24.1556 6.17936L24.184 6.15092C24.5709 6.09867 24.6471 6.08511 25.0683 5.9998ZM19.3163 12.7471H19.5398L19.3667 13.3121H19.1458L19.0936 13.4865H18.3062L18.3598 13.3121H16.762L16.9215 12.7889H17.0842L17.9226 10.0106L18.0898 9.45062H18.892L18.808 9.73285C18.808 9.73285 19.0218 9.57909 19.2247 9.52684C19.3923 9.4822 20.2203 9.46137 20.4976 9.45558V9.45393H21.3552L21.3636 9.77286C21.3578 9.82709 21.4043 9.85239 21.5045 9.85239H21.6788L21.5194 10.3793H21.0563C20.6558 10.4078 20.5034 10.236 20.5136 10.0422L20.5052 9.72872L20.4181 10.0106H20.1436L19.3163 12.7471ZM18.5167 10.71C18.5167 10.71 18.7558 10.6022 18.8842 10.5666C19.016 10.5318 19.2129 10.5202 19.2129 10.5202L19.3667 10.0106H18.7293L18.5167 10.71ZM18.5645 11.6207C18.6963 11.5909 18.8965 11.5658 18.8965 11.5658L19.0516 11.0562H18.4109L18.1913 11.784C18.1913 11.784 18.4347 11.66 18.5645 11.6207ZM17.9 12.7535H18.5393L18.7227 12.1393H18.0853L17.9 12.7535ZM21.0006 11.0562H20.0791L20.236 10.5273H22.8007L22.6411 11.0562H21.7809L21.6464 11.4851H22.5093L22.366 11.954H21.434L21.268 12.1516H21.6464L21.7389 12.7425C21.7416 12.7578 21.7436 12.7718 21.7454 12.7845C21.7506 12.8206 21.7543 12.8466 21.7686 12.8651C21.788 12.8858 21.9016 12.8969 21.9675 12.8969H22.0824L21.9075 13.4716H21.6162C21.5767 13.4716 21.5197 13.4691 21.4428 13.4658L21.4115 13.4645C21.3471 13.4588 21.2967 13.4292 21.2507 13.4021C21.2348 13.3927 21.2194 13.3837 21.2042 13.376C21.1504 13.3509 21.0711 13.2863 21.0517 13.1758L20.9606 12.5862L20.5364 13.1669C20.402 13.3509 20.2199 13.4911 19.9117 13.4911H19.3188L19.4746 12.9776H19.7013C19.7671 12.9776 19.8239 12.9518 19.8673 12.9298C19.9104 12.9118 19.9493 12.8891 19.9926 12.8251L20.6113 11.954H19.7942L19.9344 11.4851H20.8682L21.0006 11.0562ZM12.5104 12.1574L12.2953 12.873C12.2695 12.9518 12.5058 12.9621 12.5911 12.9621L13.0329 12.9014L12.8553 13.491H11.8587C11.778 13.491 11.7186 13.4794 11.632 13.4601C11.548 13.4387 11.5106 13.4012 11.4738 13.3445C11.4681 13.3353 11.4618 13.3264 11.4556 13.3173C11.4221 13.2693 11.387 13.2187 11.4195 13.1132L11.7062 12.1665H11.2148L11.3782 11.6252H11.8711L12.0022 11.1847H11.5106L11.6675 10.6694H13.8311L13.6709 11.1847H12.8062L12.6711 11.6252H13.556L13.3945 12.1574H12.5104ZM12.1727 9.85231L12.3967 9.4474H13.2776L13.1227 9.74186H14.0101L13.8492 10.2812H12.637L12.5058 10.3948C12.4724 10.427 12.452 10.4326 12.4258 10.4396C12.4075 10.4446 12.3864 10.4503 12.356 10.4665C12.2876 10.5008 12.1442 10.5692 11.9576 10.5692H11.5694L11.7256 10.0512H11.8425C11.9407 10.0512 12.0085 10.0423 12.0427 10.0209C12.0816 9.99565 12.1247 9.94076 12.1727 9.85231ZM14.2122 12.6921C14.1806 12.8012 14.1657 12.8536 14.1864 12.8834C14.2031 12.9085 14.2433 12.9383 14.2988 12.9383L14.8186 12.8892L14.6404 13.491H14.0597C13.8744 13.491 13.7401 13.4865 13.6457 13.4794C13.6263 13.4777 13.6067 13.4768 13.5873 13.4758C13.5169 13.4724 13.4487 13.4691 13.3991 13.4316C13.3928 13.4261 13.3862 13.4203 13.3793 13.4143C13.3274 13.3691 13.263 13.3131 13.2648 13.2565C13.2706 13.1972 13.2957 13.0983 13.3332 12.9621L14.3911 9.45379H15.1467L15.0362 9.83423C15.0362 9.83423 15.2753 9.64311 15.4426 9.57466C15.6084 9.51332 15.9851 9.45776 15.9851 9.45776L17.2082 9.45065L16.7918 10.8385C16.7213 11.0756 16.6393 11.2293 16.5882 11.2996C16.5424 11.37 16.4882 11.4314 16.3822 11.4896C16.2795 11.5451 16.1853 11.5761 16.0987 11.5851C16.018 11.5909 15.894 11.5929 15.7222 11.5954H14.5435L14.2122 12.6921ZM15.9953 10.8547H14.7573L14.6811 11.104H15.7531C15.838 11.094 15.8777 11.0989 15.8979 11.1014C15.9078 11.1026 15.913 11.1033 15.9166 11.1014L15.9953 10.8547ZM16.2538 10.0273H15.0053L14.8244 10.6293C14.8244 10.6293 15.0666 10.4078 15.4813 10.336C15.5755 10.3187 16.164 10.3245 16.164 10.3245L16.2538 10.0273ZM15.8952 12.0037C15.9179 11.9868 15.9341 11.9643 15.9443 11.9274L16.0179 11.6923H16.5948L16.5243 12.0257C16.4946 12.1303 16.4688 12.2077 16.3899 12.275C16.3073 12.3452 16.2104 12.419 15.9837 12.419L15.5639 12.4363L15.5608 12.8128C15.5571 12.8977 15.5745 12.908 15.5903 12.9173C15.5943 12.9197 15.5981 12.9219 15.6014 12.9252C15.6203 12.9441 15.6372 12.9513 15.6549 12.9589L15.6563 12.9595L15.7894 12.9517L16.1897 12.9297L16.0237 13.4795H15.5639C15.2423 13.4795 15.0034 13.4717 14.9259 13.4103C14.8483 13.3612 14.8381 13.2999 14.8392 13.1939L14.869 11.7252H15.6028L15.5923 12.0257H15.7688C15.8294 12.0257 15.8701 12.0199 15.8952 12.0037Z" fill="#9C9C9C"/>
</svg>
