<svg width="18" height="19" viewBox="0 0 18 19" fill="none" xmlns="http://www.w3.org/2000/svg">
<path d="M14.7656 0.75H2.73438C1.97917 0.75 1.32812 1.02344 0.78125 1.57031C0.260417 2.09115 0 2.72917 0 3.48438V15.5156C0 16.2708 0.260417 16.9089 0.78125 17.4297C1.32812 17.9766 1.97917 18.25 2.73438 18.25H14.7656C15.5208 18.25 16.1589 17.9766 16.6797 17.4297C17.2266 16.9089 17.5 16.2708 17.5 15.5156C14.974 14.1094 12.7344 12.9635 10.7812 12.0781C10.1042 13.0156 9.29688 13.7578 8.35938 14.3047C7.29167 14.9297 6.14583 15.2422 4.92188 15.2422C3.72396 15.2422 2.78646 14.8906 2.10938 14.1875C1.58854 13.6667 1.28906 13.0286 1.21094 12.2734C1.10677 11.362 1.3151 10.6328 1.83594 10.0859C2.48698 9.40885 3.56771 9.07031 5.07812 9.07031C6.27604 9.07031 7.92969 9.39583 10.0391 10.0469C10.3255 9.55208 10.5859 9.01823 10.8203 8.44531L11.0938 7.70312H4.14062V7.03906H7.73438V5.82812H3.4375V5.08594H7.73438V3.09375H9.72656V5.08594H13.9844V5.82812H9.72656V7.03906H13.1641L12.7734 8.17188C12.4349 9.05729 12.0703 9.86458 11.6797 10.5938C12.3307 10.8281 13.3333 11.1797 14.6875 11.6484L17.5 12.6641V3.48438C17.5 2.72917 17.2266 2.09115 16.6797 1.57031C16.1589 1.02344 15.5208 0.75 14.7656 0.75ZM1.83594 12.1172C1.86198 12.6641 2.03125 13.1068 2.34375 13.4453C2.8125 13.9661 3.55469 14.2266 4.57031 14.2266C6.21094 14.2266 7.7474 13.276 9.17969 11.375C7.22656 10.5417 5.80729 10.125 4.92188 10.125C3.75 10.125 2.90365 10.3724 2.38281 10.8672C1.99219 11.2318 1.8099 11.6484 1.83594 12.1172Z" fill="#9C9C9C"/>
</svg>
